<?xml version="1.0" encoding="utf-8"?>
<!-- Generator: Adobe Illustrator 19.0.0, SVG Export Plug-In . SVG Version: 6.00 Build 0)  -->
<svg version="1.1" id="Layer_1" xmlns="http://www.w3.org/2000/svg" xmlns:xlink="http://www.w3.org/1999/xlink" x="0px" y="0px"
	 viewBox="-338 498.4 281.6 265.6" style="enable-background:new -338 498.4 281.6 265.6;" xml:space="preserve">
<style type="text/css">
	.st0{fill:#272123;}
</style>
<title>Ten Side Dice - Black</title>
<g>
	<title>Layer 1</title>
	<g id="layer1">
		<path id="rect4823" class="st0" d="M-239.8,496.4c-0.4,0-0.9,0-1.2,0.1c-4.2,0.7-6.4,5-9.5,9.1c-3.5,47.9-8.5,91.8-12,139.8
			c14.7-1.1,34.9-0.9,55.6-1.2c22.6-0.3,44.5-1.9,55.3-5.8c22.2-8,39.3-28.4,53.6-58.6c-43.9-26.8-91.2-58.5-131.8-80.2
			C-233.3,498.1-236.8,496.3-239.8,496.4z M-258.9,516c-26.3,49.7-49.5,90.3-76,140.9c-0.5,13.6,2.2,21.4,5.6,26.4
			c3.4,5,6.5,6.3,11.2,6c6.6-2.2,15-8.1,23.6-15.6c3.3-2.9,24.2-21.1,26-25.1C-265.2,603.6-262.2,561.2-258.9,516z M-183.9,518.4
			c32,19.8,62.6,39.8,90.4,56.3c8.3,4.9,24.1,10.8,36,14.3c-11.4-11.5-24.3-21.4-38.8-28.5C-96.2,560.5-183.9,518.4-183.9,518.4z
			 M-204.2,536.9c3.2-0.1,6.4,0.8,9.6,2.7c6.3,3.7,12.2,11.1,17.7,22.2c5.1,10.4,7,20,5.8,28.9c-1.2,8.8-5.5,15.4-12.7,19.9
			c-1.9,1.2-4,2.2-6.2,3l-7.2,1.8l-4-8.1c2.5-0.1,4.8-0.5,7.1-1.2c2.3-0.7,4.3-1.6,6.2-2.8c5.1-3.1,8-7.5,8.8-13.1
			c0.8-5.6-0.6-12.6-4.2-20.9c-0.2,3.4-1.2,6.5-2.8,9.3c-1.6,2.8-3.8,5-6.5,6.7c-5.7,3.5-11.2,4.3-16.5,2.4c-5.3-2-9.6-6.4-13-13.3
			c-3.3-6.8-4.2-13.3-2.8-19.5c1.5-6.2,5.1-11.1,10.8-14.7C-210.7,538.1-207.5,537-204.2,536.9z M-205,545.3
			c-1.9,0.1-3.7,0.7-5.6,1.8c-3.5,2.1-5.5,5.2-6.2,9.2c-0.7,4,0.2,8.3,2.5,13.1c2.3,4.8,5.2,7.9,8.5,9.4l10.2-1
			c3.5-2.1,5.5-5.2,6.2-9.2c0.7-4-0.1-8.4-2.4-13.2c-2.3-4.7-5.2-7.9-8.5-9.3c-1.3-0.6-2.5-0.9-3.8-0.9
			C-204.4,545.3-204.7,545.3-205,545.3z M-273.2,570.3c0.7,0,1.2,0.2,1.6,0.6c1.3,1.3,1.3,4.6-0.3,10c-1.1,3.8-2.6,7.5-4.6,11.1
			c-1.9,3.6-4.2,6.8-6.7,9.7c2.2-1.1,3.5-0.7,4,1.1c0.5,1.8,0.1,4.9-1.1,9.3c-1.9,6.7-4.7,13-8.4,18.8c-3.6,5.8-7.8,10.7-12.5,14.6
			c-1.6,1.3-3.1,2.4-4.7,3.2c-1.5,0.8-3,1.4-4.5,1.8l2.6-8.9c1,0.3,2.2,0.1,3.7-0.5c1.5-0.7,3.1-1.7,5-3.3c3.2-2.7,6-5.9,8.3-9.5
			c2.3-3.7,4.1-7.7,5.4-12c1.2-4,1.3-6.5,0.4-7.4c-0.9-1-2.7-0.3-5.5,2l-4.4,3.7l2.2-7.6l4.6-3.8c2.5-2.1,4.7-4.6,6.6-7.5
			c1.9-2.9,3.3-6.1,4.2-9.5c1-3.5,1.1-5.6,0.2-6.3c-0.8-0.7-2.5,0-5.1,2.1c-1.4,1.2-3,2.7-4.8,4.6c-1.8,1.9-3.7,4.2-6,7l2.4-8.2
			c2.2-2.6,4.2-4.8,6.1-6.7c1.8-1.9,3.5-3.5,5-4.8C-276.8,571.6-274.7,570.4-273.2,570.3z M-91,583.4
			c-14.1,29.9-32.1,52.6-55.2,62.1l3.5,113.8c6-3.4,7.2-5.4,9.8-11.8l78.6-144.3c1.1-2.8,1.2-4.6-0.5-5.8
			C-67.7,593.8-78.9,589.3-91,583.4L-91,583.4z M-150.3,603.3l2.8,5.6l-45.6,22.4l-2.8-5.6L-150.3,603.3z M-83.4,624.3l-3.1,8.2
			c-3.5,4.6-8.2,10.9-14.1,18.7c-5.9,7.9-9.7,12.9-11.3,15.1c-3,4.2-5.3,7.6-6.9,10.3c-1.6,2.7-2.9,5.2-3.8,7.6
			c-1.5,3.8-1.9,6.7-1.4,8.5c0.5,1.8,1.9,2.2,4.3,1.3c1.7-0.7,3.6-1.9,5.8-3.7c2.2-1.8,4.8-4.2,7.8-7.2l-3.8,9.8
			c-2.7,2.4-5.2,4.4-7.3,6c-2.2,1.6-4,2.7-5.5,3.3c-4,1.6-6.5,1.1-7.5-1.7s-0.2-7.2,2.2-13.5c1.1-3,2.5-5.9,4.2-8.8
			c1.6-2.9,3.9-6.4,6.9-10.7c0.8-1.1,3.2-4.4,7.2-9.8l17.1-22.7l-18.4,7.5l3.2-8.2L-83.4,624.3z M-152.4,647.7
			c-12.7,3.8-33.2,4.6-54.4,4.9c-18.1,0.2-42.8-1.2-57.3,1.4c-8.5,8.2-17.7,17-26.6,24.7c-8,6.7-16.1,13.6-26.2,16.8
			c-1.2,0.1-1.4,0-2.7-0.2c3.7,3.4,7.7,5.4,11.9,7.8l143.4,57.4c0.8,0.1,8.7,3.1,15.2,0L-152.4,647.7z M-221.3,679.4
			c0.6,0,1.3,0,1.9,0c0.7,0,1.4,0.1,2.1,0.2c5.7,0.6,10.2,2.7,13.5,6.5c2.4,2.7,3.4,5.4,2.9,8.1c-0.4,2.7-2.3,5.2-5.4,7.5
			c4.9-1.1,9.5-1.1,13.7,0c4.2,1,7.7,3.1,10.4,6c4.1,4.5,5.2,8.8,3.5,12.8c-1.7,4-6.1,7.6-13.3,10.7c-7.2,3.1-13.9,4.2-19.9,3.4
			c-6-0.8-11.1-3.4-15.1-7.9c-2.7-3-3.7-6-3.2-9.1c0.5-3.1,2.6-5.9,6.2-8.4v0c-4.4,0.9-8.5,0.9-12.3,0c-3.8-1-6.9-2.8-9.3-5.4
			c-3.3-3.7-4.1-7.5-2.4-11.2c1.8-3.7,5.9-7,12.4-9.7C-230.5,680.7-225.8,679.6-221.3,679.4z M-222.8,685.9c-2.6,0-5.3,0.7-8.2,1.9
			c-3.8,1.6-6.2,3.5-7.1,5.8c-0.9,2.2-0.3,4.6,1.9,7c2.2,2.4,4.9,3.8,8.2,4.3c3.3,0.5,7-0.1,10.8-1.8c3.8-1.6,6.1-3.5,7.1-5.8
			c0.9-2.3,0.4-4.6-1.8-7c-2.2-2.4-5-3.8-8.3-4.3C-221.1,686-222,685.9-222.8,685.9z M-203.6,706.1c-3,0-6,0.7-9.2,2
			c-4.2,1.8-6.8,4-7.8,6.6c-1,2.6-0.2,5.3,2.3,8.1c2.5,2.8,5.7,4.5,9.6,5.1c3.9,0.6,7.9,0,12.1-1.8c4.2-1.8,6.8-4,7.8-6.6
			c1-2.6,0.2-5.4-2.3-8.2c-2.5-2.8-5.7-4.5-9.6-5.1C-201.6,706.2-202.6,706.1-203.6,706.1z"/>
	</g>
</g>
</svg>
